# This file uses feet as units for non-parametric coordinates.

mtllib YCR_eleVR_Room_14_Floor.mtl
g default
v -319.231567 -30.479958 257.007355
v 12.543224 -30.479958 257.007355
v 334.503326 -30.479958 257.007355
v 367.513336 -30.479958 257.007355
v -319.231567 -15.239967 257.007355
v 12.543224 -15.239967 257.007355
v 334.503326 -15.239967 257.007355
v 367.513336 -15.239967 257.007355
v -319.231567 -15.239967 -257.007355
v 12.543224 -15.239967 -257.007355
v 334.503326 -15.239967 -257.007355
v 367.513336 -15.239967 -257.007355
v -319.231567 -30.479958 -257.007355
v 12.543224 -30.479958 -257.007355
v 334.503326 -30.479958 -257.007355
v 367.513336 -30.479958 -257.007355
v 12.543224 -30.479958 293.827179
v 334.503326 -30.479958 293.827179
v 334.503326 -15.239967 293.827179
v 12.543224 -15.239967 293.827179
v 367.513336 -30.479958 293.827179
v 367.513336 -15.239967 293.827179
vt 0.037066 0.173740
vt 0.483618 0.173740
vt 0.483618 0.173740
vt 0.037066 0.173740
vt 0.483618 0.124183
vt 0.916959 0.124183
vt 0.916959 0.124183
vt 0.483618 0.124183
vt 0.483618 0.865577
vt 0.037066 0.865577
vt 0.916959 0.173740
vt 0.916959 0.865577
vt 0.961389 0.173740
vt 0.961389 0.865577
vt 0.483618 0.865577
vt 0.037066 0.865577
vt 0.916959 0.865577
vt 0.961389 0.865577
vt 0.916959 0.173740
vt 0.961389 0.173740
vt 0.961389 0.124183
vt 0.961389 0.124183
vn 0.000000 0.000000 1.000000
vn 0.000000 0.000000 1.000000
vn 0.000000 0.000000 1.000000
vn 0.000000 0.000000 1.000000
vn 0.000000 0.000000 1.000000
vn 0.000000 0.000000 1.000000
vn 0.000000 0.000000 1.000000
vn 0.000000 0.000000 1.000000
vn 0.000000 1.000000 0.000000
vn 0.000000 1.000000 0.000000
vn 0.000000 1.000000 0.000000
vn 0.000000 1.000000 0.000000
vn 0.000000 1.000000 0.000000
vn 0.000000 1.000000 0.000000
vn 0.000000 1.000000 0.000000
vn 0.000000 1.000000 0.000000
vn 0.000000 0.000000 -1.000000
vn 0.000000 0.000000 -1.000000
vn 0.000000 0.000000 -1.000000
vn 0.000000 0.000000 -1.000000
vn 0.000000 0.000000 -1.000000
vn 0.000000 0.000000 -1.000000
vn 0.000000 0.000000 -1.000000
vn 0.000000 0.000000 -1.000000
vn 0.000000 -1.000000 0.000000
vn 0.000000 -1.000000 0.000000
vn 0.000000 -1.000000 0.000000
vn 0.000000 -1.000000 0.000000
vn 0.000000 -1.000000 0.000000
vn 0.000000 -1.000000 0.000000
vn 0.000000 -1.000000 0.000000
vn 0.000000 -1.000000 0.000000
vn 1.000000 0.000000 0.000000
vn 1.000000 0.000000 0.000000
vn 1.000000 0.000000 0.000000
vn 1.000000 0.000000 0.000000
vn -1.000000 0.000000 0.000000
vn -1.000000 0.000000 0.000000
vn -1.000000 0.000000 0.000000
vn -1.000000 0.000000 0.000000
vn 0.000000 -1.000000 0.000000
vn 0.000000 -1.000000 0.000000
vn 0.000000 -1.000000 0.000000
vn 0.000000 -1.000000 0.000000
vn 0.000000 1.000000 0.000000
vn 0.000000 1.000000 0.000000
vn 0.000000 1.000000 0.000000
vn 0.000000 1.000000 0.000000
vn -1.000000 0.000000 0.000000
vn -1.000000 0.000000 0.000000
vn -1.000000 0.000000 0.000000
vn -1.000000 0.000000 0.000000
vn 0.000000 -1.000000 0.000000
vn 0.000000 -1.000000 0.000000
vn 0.000000 -1.000000 0.000000
vn 0.000000 -1.000000 0.000000
vn 0.000000 1.000000 0.000000
vn 0.000000 1.000000 0.000000
vn 0.000000 1.000000 0.000000
vn 0.000000 1.000000 0.000000
vn 1.000000 0.000000 0.000000
vn 1.000000 0.000000 0.000000
vn 1.000000 0.000000 0.000000
vn 1.000000 0.000000 0.000000
vn 0.000000 0.000000 1.000000
vn 0.000000 0.000000 1.000000
vn 0.000000 0.000000 1.000000
vn 0.000000 0.000000 1.000000
s off
g polySurface1
usemtl lambert4SG
f 1/1/1 2/2/2 6/3/3 5/4/4
f 17/5/5 18/6/6 19/7/7 20/8/8
s 1
f 5/4/9 6/3/10 10/9/11 9/10/12
f 6/3/10 7/11/13 11/12/14 10/9/11
f 7/11/13 8/13/15 12/14/16 11/12/14
s 2
f 9/10/17 10/9/18 14/15/19 13/16/20
f 10/9/18 11/12/21 15/17/22 14/15/19
f 11/12/21 12/14/23 16/18/24 15/17/22
s 3
f 13/16/25 14/15/26 2/2/27 1/1/28
f 14/15/26 15/17/29 3/19/30 2/2/27
f 15/17/29 16/18/31 4/20/32 3/19/30
s off
f 4/20/33 16/18/34 12/14/35 8/13/36
f 13/16/37 1/1/38 5/4/39 9/10/40
f 2/2/41 3/19/42 18/6/43 17/5/44
f 7/11/45 6/3/46 20/8/47 19/7/48
f 6/3/49 2/2/50 17/5/51 20/8/52
f 3/19/53 4/20/54 21/21/55 18/6/56
f 8/13/57 7/11/58 19/7/59 22/22/60
f 8/13/61 22/22/62 21/21/63 4/20/64
f 22/22/65 19/7/66 18/6/67 21/21/68
